<mxfile host="app.diagrams.net" modified="2023-05-22T11:09:13.605Z" agent="Mozilla/5.0 (Windows NT 10.0; Win64; x64) AppleWebKit/537.36 (KHTML, like Gecko) Chrome/111.0.0.0 Safari/537.36" etag="g35fEsb3ItOH-tqRbYu7" version="21.3.2" type="github">
  <diagram id="R2lEEEUBdFMjLlhIrx00" name="Page-1">
    <mxGraphModel dx="1023" dy="456" grid="1" gridSize="10" guides="1" tooltips="1" connect="1" arrows="1" fold="1" page="1" pageScale="1" pageWidth="850" pageHeight="1100" math="0" shadow="0" extFonts="Permanent Marker^https://fonts.googleapis.com/css?family=Permanent+Marker">
      <root>
        <mxCell id="0" />
        <mxCell id="1" parent="0" />
        <mxCell id="4vf_kd10wDwAIhLdMosf-4" style="edgeStyle=orthogonalEdgeStyle;rounded=0;orthogonalLoop=1;jettySize=auto;html=1;exitX=0.5;exitY=1;exitDx=0;exitDy=0;" edge="1" parent="1" source="4vf_kd10wDwAIhLdMosf-1" target="4vf_kd10wDwAIhLdMosf-3">
          <mxGeometry relative="1" as="geometry" />
        </mxCell>
        <mxCell id="4vf_kd10wDwAIhLdMosf-5" style="edgeStyle=orthogonalEdgeStyle;rounded=0;orthogonalLoop=1;jettySize=auto;html=1;exitX=0.5;exitY=0;exitDx=0;exitDy=0;entryX=0.5;entryY=0.5;entryDx=0;entryDy=0;entryPerimeter=0;" edge="1" parent="1" source="4vf_kd10wDwAIhLdMosf-1" target="4vf_kd10wDwAIhLdMosf-2">
          <mxGeometry relative="1" as="geometry" />
        </mxCell>
        <mxCell id="4vf_kd10wDwAIhLdMosf-1" value="USER LOGIN" style="rounded=1;whiteSpace=wrap;html=1;" vertex="1" parent="1">
          <mxGeometry x="10" y="300" width="120" height="30" as="geometry" />
        </mxCell>
        <mxCell id="4vf_kd10wDwAIhLdMosf-10" style="edgeStyle=orthogonalEdgeStyle;rounded=0;orthogonalLoop=1;jettySize=auto;html=1;exitX=0.75;exitY=0.1;exitDx=0;exitDy=0;exitPerimeter=0;" edge="1" parent="1" source="4vf_kd10wDwAIhLdMosf-2" target="4vf_kd10wDwAIhLdMosf-7">
          <mxGeometry relative="1" as="geometry" />
        </mxCell>
        <mxCell id="4vf_kd10wDwAIhLdMosf-2" value="Doctor" style="shape=umlActor;verticalLabelPosition=bottom;verticalAlign=top;html=1;outlineConnect=0;" vertex="1" parent="1">
          <mxGeometry x="140" y="190" width="30" height="60" as="geometry" />
        </mxCell>
        <mxCell id="4vf_kd10wDwAIhLdMosf-14" style="edgeStyle=orthogonalEdgeStyle;rounded=0;orthogonalLoop=1;jettySize=auto;html=1;exitX=1;exitY=0.3333333333333333;exitDx=0;exitDy=0;exitPerimeter=0;entryX=0.5;entryY=1;entryDx=0;entryDy=0;" edge="1" parent="1" source="4vf_kd10wDwAIhLdMosf-3" target="4vf_kd10wDwAIhLdMosf-11">
          <mxGeometry relative="1" as="geometry">
            <mxPoint x="340" y="350" as="targetPoint" />
          </mxGeometry>
        </mxCell>
        <mxCell id="4vf_kd10wDwAIhLdMosf-3" value="Pharmacist" style="shape=umlActor;verticalLabelPosition=bottom;verticalAlign=top;html=1;outlineConnect=0;" vertex="1" parent="1">
          <mxGeometry x="140" y="370" width="30" height="60" as="geometry" />
        </mxCell>
        <mxCell id="4vf_kd10wDwAIhLdMosf-8" style="edgeStyle=orthogonalEdgeStyle;rounded=0;orthogonalLoop=1;jettySize=auto;html=1;exitX=0.5;exitY=1;exitDx=0;exitDy=0;entryX=0.5;entryY=0;entryDx=0;entryDy=0;entryPerimeter=0;" edge="1" parent="1" source="4vf_kd10wDwAIhLdMosf-6" target="4vf_kd10wDwAIhLdMosf-7">
          <mxGeometry relative="1" as="geometry" />
        </mxCell>
        <mxCell id="4vf_kd10wDwAIhLdMosf-6" value="PATIENT LOGIN" style="rounded=1;whiteSpace=wrap;html=1;" vertex="1" parent="1">
          <mxGeometry x="305" y="70" width="120" height="30" as="geometry" />
        </mxCell>
        <mxCell id="4vf_kd10wDwAIhLdMosf-12" style="edgeStyle=orthogonalEdgeStyle;rounded=0;orthogonalLoop=1;jettySize=auto;html=1;" edge="1" parent="1" source="4vf_kd10wDwAIhLdMosf-7">
          <mxGeometry relative="1" as="geometry">
            <mxPoint x="340" y="310" as="targetPoint" />
          </mxGeometry>
        </mxCell>
        <mxCell id="4vf_kd10wDwAIhLdMosf-7" value="Patient" style="shape=umlActor;verticalLabelPosition=bottom;verticalAlign=top;html=1;outlineConnect=0;" vertex="1" parent="1">
          <mxGeometry x="340" y="140" width="30" height="60" as="geometry" />
        </mxCell>
        <mxCell id="4vf_kd10wDwAIhLdMosf-16" value="" style="edgeStyle=orthogonalEdgeStyle;rounded=0;orthogonalLoop=1;jettySize=auto;html=1;" edge="1" parent="1" source="4vf_kd10wDwAIhLdMosf-11" target="4vf_kd10wDwAIhLdMosf-15">
          <mxGeometry relative="1" as="geometry" />
        </mxCell>
        <mxCell id="4vf_kd10wDwAIhLdMosf-11" value="Prescription" style="rounded=1;whiteSpace=wrap;html=1;" vertex="1" parent="1">
          <mxGeometry x="280" y="310" width="120" height="30" as="geometry" />
        </mxCell>
        <mxCell id="4vf_kd10wDwAIhLdMosf-23" style="edgeStyle=orthogonalEdgeStyle;rounded=0;orthogonalLoop=1;jettySize=auto;html=1;exitX=0.5;exitY=0;exitDx=0;exitDy=0;entryX=0.5;entryY=1;entryDx=0;entryDy=0;" edge="1" parent="1" source="4vf_kd10wDwAIhLdMosf-15" target="4vf_kd10wDwAIhLdMosf-21">
          <mxGeometry relative="1" as="geometry" />
        </mxCell>
        <mxCell id="4vf_kd10wDwAIhLdMosf-15" value="Medicine" style="whiteSpace=wrap;html=1;rounded=1;" vertex="1" parent="1">
          <mxGeometry x="480" y="295" width="120" height="25" as="geometry" />
        </mxCell>
        <mxCell id="4vf_kd10wDwAIhLdMosf-17" value="" style="endArrow=none;dashed=1;html=1;rounded=0;exitX=0.5;exitY=0;exitDx=0;exitDy=0;exitPerimeter=0;" edge="1" parent="1" source="4vf_kd10wDwAIhLdMosf-3" target="4vf_kd10wDwAIhLdMosf-2">
          <mxGeometry width="50" height="50" relative="1" as="geometry">
            <mxPoint x="440" y="390" as="sourcePoint" />
            <mxPoint x="490" y="340" as="targetPoint" />
          </mxGeometry>
        </mxCell>
        <mxCell id="4vf_kd10wDwAIhLdMosf-19" style="edgeStyle=orthogonalEdgeStyle;rounded=0;orthogonalLoop=1;jettySize=auto;html=1;entryX=0.5;entryY=0.5;entryDx=0;entryDy=0;entryPerimeter=0;" edge="1" parent="1" source="4vf_kd10wDwAIhLdMosf-18" target="4vf_kd10wDwAIhLdMosf-3">
          <mxGeometry relative="1" as="geometry" />
        </mxCell>
        <mxCell id="4vf_kd10wDwAIhLdMosf-20" style="edgeStyle=orthogonalEdgeStyle;rounded=0;orthogonalLoop=1;jettySize=auto;html=1;entryX=0.5;entryY=1;entryDx=0;entryDy=0;" edge="1" parent="1" source="4vf_kd10wDwAIhLdMosf-18" target="4vf_kd10wDwAIhLdMosf-15">
          <mxGeometry relative="1" as="geometry" />
        </mxCell>
        <mxCell id="4vf_kd10wDwAIhLdMosf-18" value="Inventory&lt;br&gt;" style="shape=cylinder3;whiteSpace=wrap;html=1;boundedLbl=1;backgroundOutline=1;size=15;" vertex="1" parent="1">
          <mxGeometry x="380" y="400" width="60" height="80" as="geometry" />
        </mxCell>
        <mxCell id="4vf_kd10wDwAIhLdMosf-21" value="Chekout" style="whiteSpace=wrap;html=1;verticalAlign=top;" vertex="1" parent="1">
          <mxGeometry x="500" y="200" width="120" height="30" as="geometry" />
        </mxCell>
      </root>
    </mxGraphModel>
  </diagram>
</mxfile>
